<svg width="2518" height="1992" xmlns="http://www.w3.org/2000/svg" xmlns:xlink="http://www.w3.org/1999/xlink" xml:space="preserve" overflow="hidden"><defs><clipPath id="clip0"><rect x="299" y="203" width="2518" height="1992"/></clipPath></defs><g clip-path="url(#clip0)" transform="translate(-299 -203)"><rect x="299" y="203" width="2518" height="1992" fill="#FFFFFF"/><path d="M511.5 507.834C511.5 489.424 526.424 474.5 544.834 474.5L1277.17 474.5C1295.58 474.5 1310.5 489.424 1310.5 507.834L1310.5 641.166C1310.5 659.576 1295.58 674.5 1277.17 674.5L544.834 674.5C526.424 674.5 511.5 659.576 511.5 641.166Z" stroke="#324050" stroke-width="6.875" stroke-miterlimit="8" fill="#DBE9F4" fill-rule="evenodd"/><text fill="#232323" font-family="Malgun Gothic Semilight,Malgun Gothic Semilight_MSFontService,sans-serif" font-weight="300" font-size="83" transform="matrix(1 0 0 1 707.365 606)">Application</text><path d="M511.5 732.834C511.5 714.424 526.424 699.5 544.834 699.5L1277.17 699.5C1295.58 699.5 1310.5 714.424 1310.5 732.834L1310.5 866.167C1310.5 884.576 1295.58 899.5 1277.17 899.5L544.834 899.5C526.424 899.5 511.5 884.576 511.5 866.167Z" stroke="#324050" stroke-width="6.875" stroke-miterlimit="8" fill="#E5E6EB" fill-rule="evenodd"/><text fill="#232323" font-family="Malgun Gothic Semilight,Malgun Gothic Semilight_MSFontService,sans-serif" font-weight="300" font-size="83" transform="matrix(1 0 0 1 685.594 831)">Presentation</text><path d="M511.5 957.833C511.5 939.424 526.424 924.5 544.834 924.5L1277.17 924.5C1295.58 924.5 1310.5 939.424 1310.5 957.833L1310.5 1091.17C1310.5 1109.58 1295.58 1124.5 1277.17 1124.5L544.834 1124.5C526.424 1124.5 511.5 1109.58 511.5 1091.17Z" stroke="#324050" stroke-width="6.875" stroke-miterlimit="8" fill="#B2CDE5" fill-rule="evenodd"/><text fill="#232323" font-family="Malgun Gothic Semilight,Malgun Gothic Semilight_MSFontService,sans-serif" font-weight="300" font-size="83" transform="matrix(1 0 0 1 777.261 1055)">Session</text><path d="M511.5 1182.83C511.5 1164.42 526.424 1149.5 544.834 1149.5L1277.17 1149.5C1295.58 1149.5 1310.5 1164.42 1310.5 1182.83L1310.5 1316.17C1310.5 1334.58 1295.58 1349.5 1277.17 1349.5L544.834 1349.5C526.424 1349.5 511.5 1334.58 511.5 1316.17Z" stroke="#324050" stroke-width="6.875" stroke-miterlimit="8" fill="#95BDE0" fill-rule="evenodd"/><text fill="#232323" font-family="Malgun Gothic Semilight,Malgun Gothic Semilight_MSFontService,sans-serif" font-weight="300" font-size="83" transform="matrix(1 0 0 1 743.263 1280)">Transport</text><path d="M511.5 1406.83C511.5 1388.42 526.424 1373.5 544.834 1373.5L1277.17 1373.5C1295.58 1373.5 1310.5 1388.42 1310.5 1406.83L1310.5 1540.17C1310.5 1558.58 1295.58 1573.5 1277.17 1573.5L544.834 1573.5C526.424 1573.5 511.5 1558.58 511.5 1540.17Z" stroke="#324050" stroke-width="6.875" stroke-miterlimit="8" fill="#619DD3" fill-rule="evenodd"/><text fill="#232323" font-family="Malgun Gothic Semilight,Malgun Gothic Semilight_MSFontService,sans-serif" font-weight="300" font-size="83" transform="matrix(1 0 0 1 757.781 1505)">Network</text><path d="M511.5 1631.83C511.5 1613.42 526.424 1598.5 544.834 1598.5L1277.17 1598.5C1295.58 1598.5 1310.5 1613.42 1310.5 1631.83L1310.5 1765.17C1310.5 1783.58 1295.58 1798.5 1277.17 1798.5L544.834 1798.5C526.424 1798.5 511.5 1783.58 511.5 1765.17Z" stroke="#324050" stroke-width="6.875" stroke-miterlimit="8" fill="#4280BA" fill-rule="evenodd"/><text fill="#232323" font-family="Malgun Gothic Semilight,Malgun Gothic Semilight_MSFontService,sans-serif" font-weight="300" font-size="83" transform="matrix(1 0 0 1 743.172 1730)">Data Link</text><path d="M511.5 1856.83C511.5 1838.42 526.424 1823.5 544.834 1823.5L1277.17 1823.5C1295.58 1823.5 1310.5 1838.42 1310.5 1856.83L1310.5 1990.17C1310.5 2008.58 1295.58 2023.5 1277.17 2023.5L544.834 2023.5C526.424 2023.5 511.5 2008.58 511.5 1990.17Z" stroke="#324050" stroke-width="6.875" stroke-miterlimit="8" fill="#4674BF" fill-rule="evenodd"/><text fill="#232323" font-family="Malgun Gothic Semilight,Malgun Gothic Semilight_MSFontService,sans-serif" font-weight="300" font-size="83" transform="matrix(1 0 0 1 768.953 1955)">Physical</text><path d="M1776.5 582.835C1776.5 523.003 1825 474.5 1884.84 474.5L2467.16 474.5C2527 474.5 2575.5 523.003 2575.5 582.835L2575.5 1016.16C2575.5 1076 2527 1124.5 2467.16 1124.5L1884.84 1124.5C1825 1124.5 1776.5 1076 1776.5 1016.16Z" stroke="#324050" stroke-width="6.875" stroke-miterlimit="8" fill="#C8DFB1" fill-rule="evenodd"/><text fill="#232323" font-family="Malgun Gothic Semilight,Malgun Gothic Semilight_MSFontService,sans-serif" font-weight="300" font-size="83" transform="matrix(1 0 0 1 1972.36 831)">Application</text><path d="M1776.5 1182.83C1776.5 1164.42 1791.42 1149.5 1809.83 1149.5L2542.17 1149.5C2560.58 1149.5 2575.5 1164.42 2575.5 1182.83L2575.5 1316.17C2575.5 1334.58 2560.58 1349.5 2542.17 1349.5L1809.83 1349.5C1791.42 1349.5 1776.5 1334.58 1776.5 1316.17Z" stroke="#324050" stroke-width="6.875" stroke-miterlimit="8" fill="#ABCE8E" fill-rule="evenodd"/><text fill="#232323" font-family="Malgun Gothic Semilight,Malgun Gothic Semilight_MSFontService,sans-serif" font-weight="300" font-size="83" transform="matrix(1 0 0 1 2008.26 1280)">Transport</text><path d="M1776.5 1406.83C1776.5 1388.42 1791.42 1373.5 1809.83 1373.5L2542.17 1373.5C2560.58 1373.5 2575.5 1388.42 2575.5 1406.83L2575.5 1540.17C2575.5 1558.58 2560.58 1573.5 2542.17 1573.5L1809.83 1573.5C1791.42 1573.5 1776.5 1558.58 1776.5 1540.17Z" stroke="#324050" stroke-width="6.875" stroke-miterlimit="8" fill="#9FC780" fill-rule="evenodd"/><text fill="#232323" font-family="Malgun Gothic Semilight,Malgun Gothic Semilight_MSFontService,sans-serif" font-weight="300" font-size="83" transform="matrix(1 0 0 1 2034.81 1505)">Internet</text><path d="M1776.5 1669.33C1776.5 1630.21 1808.21 1598.5 1847.33 1598.5L2504.67 1598.5C2543.79 1598.5 2575.5 1630.21 2575.5 1669.33L2575.5 1952.67C2575.5 1991.79 2543.79 2023.5 2504.67 2023.5L1847.33 2023.5C1808.21 2023.5 1776.5 1991.79 1776.5 1952.67Z" stroke="#324050" stroke-width="6.875" stroke-miterlimit="8" fill="#75AB48" fill-rule="evenodd"/><text fill="#232323" font-family="Malgun Gothic Semilight,Malgun Gothic Semilight_MSFontService,sans-serif" font-weight="300" font-size="83" transform="matrix(1 0 0 1 1890.15 1842)">Network Access</text><path d="M1382.15 793.771 1731.54 793.771 1731.54 805.23 1382.15 805.229ZM1387.87 816.688 1353.5 799.5 1387.87 782.313ZM1725.81 782.313 1760.19 799.5 1725.81 816.688Z" fill="#809EC2"/><path d="M1363.15 1232.77 1732.35 1232.77 1732.35 1244.23 1363.15 1244.23ZM1368.87 1255.69 1334.5 1238.5 1368.87 1221.31ZM1726.62 1221.31 1761 1238.5 1726.62 1255.69Z" fill="#809EC2"/><path d="M1363.15 1465.77 1732.35 1465.77 1732.35 1477.23 1363.15 1477.23ZM1368.87 1488.69 1334.5 1471.5 1368.87 1454.31ZM1726.62 1454.31 1761 1471.5 1726.62 1488.69Z" fill="#809EC2"/><path d="M1382.15 1799.77 1731.54 1799.77 1731.54 1811.23 1382.15 1811.23ZM1387.87 1822.69 1353.5 1805.5 1387.87 1788.31ZM1725.81 1788.31 1760.19 1805.5 1725.81 1822.69Z" fill="#809EC2"/><text fill="#232323" font-family="HYGothic-Extra,HYGothic-Extra_MSFontService,sans-serif" font-weight="400" font-size="92" transform="matrix(1 0 0 1 587.826 416)">OSI 7 LAYER</text><text fill="#232323" font-family="HYGothic-Extra,HYGothic-Extra_MSFontService,sans-serif" font-weight="400" font-size="92" transform="matrix(1 0 0 1 1793 416)">TCP/IP 4 LAYER</text><path d="M1310.5 574.5 1349.96 574.5 1349.96 1024.06 1315.08 1024.06" stroke="#809EC2" stroke-width="6.875" stroke-miterlimit="8" fill="none" fill-rule="evenodd"/><path d="M1310.5 1698.5 1349.96 1698.5 1349.96 1923.28 1315.08 1923.28" stroke="#809EC2" stroke-width="6.875" stroke-miterlimit="8" fill="none" fill-rule="evenodd"/></g></svg>