<svg width="2867" height="1308" xmlns="http://www.w3.org/2000/svg" xmlns:xlink="http://www.w3.org/1999/xlink" xml:space="preserve" overflow="hidden"><defs><clipPath id="clip0"><rect x="108" y="74" width="2867" height="1308"/></clipPath></defs><g clip-path="url(#clip0)" transform="translate(-108 -74)"><rect x="108" y="73.9999" width="2867" height="1308" fill="#FFFFFF"/><rect x="309.5" y="247.5" width="406" height="349" stroke="#2B4719" stroke-width="4.58333" stroke-miterlimit="8" fill="#70AD47"/><text fill="#FFFFFF" font-family="Calibri,Calibri_MSFontService,sans-serif" font-weight="400" font-size="83" transform="matrix(1 0 0 1 403.321 449)">Core 1</text><rect x="309.5" y="709.5" width="406" height="349" stroke="#2B4719" stroke-width="4.58333" stroke-miterlimit="8" fill="#70AD47"/><text fill="#FFFFFF" font-family="Calibri,Calibri_MSFontService,sans-serif" font-weight="400" font-size="83" transform="matrix(1 0 0 1 403.321 911)">Core 2</text><rect x="1514.5" y="359.5" width="222" height="188" stroke="#223F59" stroke-width="4.58333" stroke-miterlimit="8" fill="#5B9BD5"/><text fill="#FFFFFF" font-family="Calibri,Calibri_MSFontService,sans-serif" font-weight="400" font-size="83" transform="matrix(1 0 0 1 1561.29 481)">TCB</text><rect x="1736.5" y="359.5" width="222" height="188" stroke="#223F59" stroke-width="4.58333" stroke-miterlimit="8" fill="#5B9BD5"/><text fill="#FFFFFF" font-family="Calibri,Calibri_MSFontService,sans-serif" font-weight="400" font-size="83" transform="matrix(1 0 0 1 1783.68 481)">TCB</text><rect x="1958.5" y="359.5" width="223" height="188" stroke="#223F59" stroke-width="4.58333" stroke-miterlimit="8" fill="#5B9BD5"/><text fill="#FFFFFF" font-family="Calibri,Calibri_MSFontService,sans-serif" font-weight="400" font-size="83" transform="matrix(1 0 0 1 2006.07 481)">TCB</text><text font-family="Malgun Gothic,Malgun Gothic_MSFontService,sans-serif" font-weight="400" font-size="64" transform="matrix(1 0 0 1 1122.73 430)">우선순위</text><text font-family="Calibri,Calibri_MSFontService,sans-serif" font-weight="400" font-size="64" transform="matrix(1 0 0 1 1393.72 430)">12</text><text font-family="Calibri,Calibri_MSFontService,sans-serif" font-weight="400" font-size="64" transform="matrix(1 0 0 1 1122.73 506)">Ready Queue</text><rect x="1514.5" y="617.5" width="222" height="189" stroke="#223F59" stroke-width="4.58333" stroke-miterlimit="8" fill="#5B9BD5"/><text fill="#FFFFFF" font-family="Calibri,Calibri_MSFontService,sans-serif" font-weight="400" font-size="83" transform="matrix(1 0 0 1 1561.29 739)">TCB</text><text font-family="Malgun Gothic,Malgun Gothic_MSFontService,sans-serif" font-weight="400" font-size="64" transform="matrix(1 0 0 1 1122.73 688)">우선순위</text><text font-family="Calibri,Calibri_MSFontService,sans-serif" font-weight="400" font-size="64" transform="matrix(1 0 0 1 1393.72 688)">11</text><text font-family="Calibri,Calibri_MSFontService,sans-serif" font-weight="400" font-size="64" transform="matrix(1 0 0 1 1122.73 764)">Ready Queue</text><rect x="1514.5" y="876.5" width="222" height="188" stroke="#223F59" stroke-width="4.58333" stroke-miterlimit="8" fill="#5B9BD5"/><text fill="#FFFFFF" font-family="Calibri,Calibri_MSFontService,sans-serif" font-weight="400" font-size="83" transform="matrix(1 0 0 1 1561.29 997)">TCB</text><rect x="1736.5" y="876.5" width="222" height="188" stroke="#223F59" stroke-width="4.58333" stroke-miterlimit="8" fill="#5B9BD5"/><text fill="#FFFFFF" font-family="Calibri,Calibri_MSFontService,sans-serif" font-weight="400" font-size="83" transform="matrix(1 0 0 1 1783.68 997)">TCB</text><rect x="1958.5" y="876.5" width="223" height="188" stroke="#223F59" stroke-width="4.58333" stroke-miterlimit="8" fill="#5B9BD5"/><text fill="#FFFFFF" font-family="Calibri,Calibri_MSFontService,sans-serif" font-weight="400" font-size="83" transform="matrix(1 0 0 1 2006.07 997)">TCB</text><text font-family="Malgun Gothic,Malgun Gothic_MSFontService,sans-serif" font-weight="400" font-size="64" transform="matrix(1 0 0 1 1122.73 947)">우선순위</text><text font-family="Calibri,Calibri_MSFontService,sans-serif" font-weight="400" font-size="64" transform="matrix(1 0 0 1 1393.72 947)">10</text><text font-family="Calibri,Calibri_MSFontService,sans-serif" font-weight="400" font-size="64" transform="matrix(1 0 0 1 1122.73 1023)">Ready Queue</text><rect x="2181.5" y="876.5" width="222" height="188" stroke="#223F59" stroke-width="4.58333" stroke-miterlimit="8" fill="#5B9BD5"/><text fill="#FFFFFF" font-family="Calibri,Calibri_MSFontService,sans-serif" font-weight="400" font-size="83" transform="matrix(1 0 0 1 2228.46 997)">TCB</text><rect x="2403.5" y="876.5" width="223" height="188" stroke="#223F59" stroke-width="4.58333" stroke-miterlimit="8" fill="#5B9BD5"/><text fill="#FFFFFF" font-family="Calibri,Calibri_MSFontService,sans-serif" font-weight="400" font-size="83" transform="matrix(1 0 0 1 2450.85 997)">TCB</text><path d="M1040.5 204.5 1321.83 204.5 1321.83 204.5 1743.83 204.5 2728.5 204.5 2728.5 372.842 2728.5 372.842 2728.5 625.356 2728.5 1214.55 1743.83 1214.55 1321.83 1214.55 1321.83 1214.55 1040.5 1214.55 1040.5 625.356 746.114 370.239 1040.5 372.842Z" stroke="#172C51" stroke-width="4.58333" stroke-miterlimit="8" fill="none" fill-rule="evenodd"/><text font-family="Calibri,Calibri_MSFontService,sans-serif" font-weight="400" font-size="83" transform="matrix(6.12323e-17 1 -1 6.12323e-17 1288.36 1091)">…</text><text font-family="Calibri,Calibri_MSFontService,sans-serif" font-weight="400" font-size="83" transform="matrix(6.12323e-17 1 -1 6.12323e-17 1288.36 257)">…</text></g></svg>