<svg width="2827" height="1327" xmlns="http://www.w3.org/2000/svg" xmlns:xlink="http://www.w3.org/1999/xlink" xml:space="preserve" overflow="hidden"><g transform="translate(-155 -177)"><rect x="155" y="177" width="2672" height="1327" fill="#FFFFFF"/><rect x="590.5" y="410.5" width="487" height="993" stroke="#223F59" stroke-width="4.58333" stroke-miterlimit="8" fill="#FFFFFF"/><rect x="590.5" y="602.5" width="487" height="426" stroke="#223F59" stroke-width="4.58333" stroke-miterlimit="8" fill="#9DC3E6"/><text font-family="Malgun Gothic,Malgun Gothic_MSFontService,sans-serif" font-weight="400" font-size="83" transform="matrix(1 0 0 1 622.546 372)">가상메모리</text><rect x="1899.5" y="410.5" width="488" height="993" stroke="#223F59" stroke-width="4.58333" stroke-miterlimit="8" fill="#FFFFFF"/><rect x="1899.5" y="825.5" width="488" height="426" stroke="#2B4719" stroke-width="4.58333" stroke-miterlimit="8" fill="#A9D18E"/><text font-family="Malgun Gothic,Malgun Gothic_MSFontService,sans-serif" font-weight="400" font-size="83" transform="matrix(1 0 0 1 1931.91 372)">물리메모리</text><text font-family="Calibri,Calibri_MSFontService,sans-serif" font-weight="400" font-size="64" transform="matrix(1 0 0 1 250.484 1039)">0x00a3b000</text><text font-family="Calibri,Calibri_MSFontService,sans-serif" font-weight="400" font-size="64" transform="matrix(1 0 0 1 250.484 620)">0x00a3c000</text><text font-family="Calibri,Calibri_MSFontService,sans-serif" font-weight="400" font-size="64" transform="matrix(1 0 0 1 2419.52 1263)">0x01fe3000</text><text font-family="Calibri,Calibri_MSFontService,sans-serif" font-weight="400" font-size="64" transform="matrix(1 0 0 1 2419.52 854)">0x01fe4000</text><text font-family="Calibri,Calibri_MSFontService,sans-serif" font-weight="400" font-size="64" transform="matrix(1 0 0 1 640.266 685)">1</text><text font-family="Malgun Gothic,Malgun Gothic_MSFontService,sans-serif" font-weight="400" font-size="64" transform="matrix(1 0 0 1 672.923 685)">개</text><text font-family="Calibri,Calibri_MSFontService,sans-serif" font-weight="400" font-size="64" transform="matrix(1 0 0 1 751.412 685)">page(4KB)</text><text font-family="Calibri,Calibri_MSFontService,sans-serif" font-weight="400" font-size="64" transform="matrix(1 0 0 1 1931.91 911)">1</text><text font-family="Malgun Gothic,Malgun Gothic_MSFontService,sans-serif" font-weight="400" font-size="64" transform="matrix(1 0 0 1 1964.57 911)">개</text><text font-family="Calibri,Calibri_MSFontService,sans-serif" font-weight="400" font-size="64" transform="matrix(1 0 0 1 2043.05 911)">fram</text><text font-family="Calibri,Calibri_MSFontService,sans-serif" font-weight="400" font-size="64" transform="matrix(1 0 0 1 2165.5 911)">e</text><text font-family="Calibri,Calibri_MSFontService,sans-serif" font-weight="400" font-size="64" transform="matrix(1 0 0 1 2197.58 911)">(4KB)</text><rect x="591.5" y="818.5" width="486" height="78.0001" stroke="#223F59" stroke-width="4.58333" stroke-miterlimit="8" fill="#5B9BD5"/><text font-family="Calibri,Calibri_MSFontService,sans-serif" font-weight="400" font-size="73" transform="matrix(1 0 0 1 652.845 882)">0x00a3b</text><text fill="#FFFF00" font-family="Calibri,Calibri_MSFontService,sans-serif" font-weight="700" font-size="73" transform="matrix(1 0 0 1 906.647 882)">aaa</text><rect x="1899.5" y="1024.5" width="488" height="78" stroke="#2B4719" stroke-width="4.58333" stroke-miterlimit="8" fill="#70AD47"/><text font-family="Calibri,Calibri_MSFontService,sans-serif" font-weight="400" font-size="73" transform="matrix(1 0 0 1 1950.56 1088)">0x</text><text font-family="Calibri,Calibri_MSFontService,sans-serif" font-weight="400" font-size="73" transform="matrix(1 0 0 1 2019.31 1088)">01fe3</text><text font-family="Calibri,Calibri_MSFontService,sans-serif" font-weight="400" font-size="73" transform="matrix(1 0 0 1 2188.2 1088)">b</text><text fill="#FFFF00" font-family="Calibri,Calibri_MSFontService,sans-serif" font-weight="700" font-size="73" transform="matrix(1 0 0 1 2226.59 1088)">aaa</text><path d="M1078.34 854.166 1877.86 1054.89 1876.19 1061.55 1076.66 860.834ZM1875.93 1043.77 1899.25 1063.8 1869.23 1070.44Z" fill="#4472C4"/><text font-family="Malgun Gothic,Malgun Gothic_MSFontService,sans-serif" font-weight="400" font-size="64" transform="matrix(1 0 0 1 1207.07 629)">가상메모리</text><text font-family="Malgun Gothic,Malgun Gothic_MSFontService,sans-serif" font-weight="400" font-size="64" transform="matrix(1 0 0 1 1542.22 629)">주소와</text><text font-family="Malgun Gothic,Malgun Gothic_MSFontService,sans-serif" font-weight="400" font-size="64" transform="matrix(1 0 0 1 1207.07 706)">물리메모리</text><text font-family="Malgun Gothic,Malgun Gothic_MSFontService,sans-serif" font-weight="400" font-size="64" transform="matrix(1 0 0 1 1542.22 706)">주소에서</text><text font-family="Malgun Gothic,Malgun Gothic_MSFontService,sans-serif" font-weight="400" font-size="64" transform="matrix(1 0 0 1 1207.07 783)">하위</text><text font-family="Calibri,Calibri_MSFontService,sans-serif" font-weight="400" font-size="64" transform="matrix(1 0 0 1 1349.72 783)">12bit</text><text font-family="Malgun Gothic,Malgun Gothic_MSFontService,sans-serif" font-weight="400" font-size="64" transform="matrix(1 0 0 1 1485.5 783)">는</text><text font-family="Malgun Gothic,Malgun Gothic_MSFontService,sans-serif" font-weight="400" font-size="64" transform="matrix(1 0 0 1 1563.99 783)">값이</text><text font-family="Malgun Gothic,Malgun Gothic_MSFontService,sans-serif" font-weight="400" font-size="64" transform="matrix(1 0 0 1 1207.07 860)">동일함</text></g></svg>