<svg width="3269" height="1576" xmlns="http://www.w3.org/2000/svg" xmlns:xlink="http://www.w3.org/1999/xlink" xml:space="preserve" overflow="hidden"><defs><clipPath id="clip0"><rect x="289" y="189" width="3269" height="1576"/></clipPath></defs><g clip-path="url(#clip0)" transform="translate(-289 -189)"><rect x="289" y="189" width="3269" height="1576" fill="#FFFFFF"/><rect x="353.5" y="744.5" width="520" height="448" stroke="#024059" stroke-width="6.875" stroke-miterlimit="8" fill="#0F9ED5"/><text font-family="Malgun Gothic,Malgun Gothic_MSFontService,sans-serif" font-weight="400" font-size="83" transform="matrix(1 0 0 1 526.035 950)">Core</text><text font-family="Malgun Gothic,Malgun Gothic_MSFontService,sans-serif" font-weight="400" font-size="83" transform="matrix(1 0 0 1 433.223 1049)">연산</text><text font-family="Malgun Gothic,Malgun Gothic_MSFontService,sans-serif" font-weight="400" font-size="83" transform="matrix(1 0 0 1 627.442 1049)">유닛</text><path d="M877.502 812.239 884.05 796.79 891.405 784.464 900.05 772.497 909.982 760.828 921.161 749.465 933.545 738.418 947.096 727.696 961.777 717.309 977.55 707.267 994.378 697.581 1012.23 688.262 1031.06 679.322 1050.83 670.774 1071.52 662.63 1093.08 654.903 1115.47 647.606 1138.67 640.752 1162.63 634.355 1187.32 628.427 1212.7 622.984 1238.73 618.037 1265.38 613.601 1292.61 609.689 1320.38 606.316 1348.66 603.495 1377.41 601.24 1406.6 599.564 1436.18 598.482 1466.12 598.008 1496.34 598.155 1496.3 606.176 1466.12 606.029 1466.21 606.029 1436.35 606.501 1436.43 606.499 1406.93 607.578 1407.02 607.574 1377.92 609.245 1378 609.239 1349.33 611.488 1349.42 611.48 1321.22 614.293 1321.31 614.284 1293.62 617.646 1293.71 617.635 1266.56 621.534 1266.65 621.52 1240.09 625.941 1240.18 625.925 1214.24 630.855 1214.33 630.836 1189.05 636.26 1189.14 636.238 1164.55 642.142 1164.65 642.117 1140.79 648.488 1140.89 648.459 1117.8 655.282 1117.9 655.249 1095.62 662.511 1095.73 662.473 1074.28 670.16 1074.4 670.116 1053.83 678.213 1053.95 678.163 1034.3 686.656 1034.43 686.598 1015.73 695.475 1015.87 695.407 998.164 704.652 998.308 704.573 981.629 714.174 981.782 714.081 966.167 724.023 966.33 723.913 951.817 734.182 951.989 734.053 938.615 744.635 938.796 744.483 926.598 755.364 926.787 755.184 915.801 766.35 915.997 766.137 906.261 777.574 906.458 777.323 898.01 789.018 898.203 788.725 891.079 800.664 891.328 800.174 884.887 815.369ZM904.459 816.03 874.58 835.746 860.576 802.802Z" fill="#156082"/><rect x="1499.5" y="458.5" width="521" height="286" stroke="#622C0F" stroke-width="6.875" stroke-miterlimit="8" fill="#FFC000"/><text font-family="Malgun Gothic,Malgun Gothic_MSFontService,sans-serif" font-weight="400" font-size="83" transform="matrix(1 0 0 1 1543.57 632)">Load Buffer</text><rect x="1485.5" y="1170.5" width="520" height="285" stroke="#622C0F" stroke-width="6.875" stroke-miterlimit="8" fill="#E97132"/><text font-family="Malgun Gothic,Malgun Gothic_MSFontService,sans-serif" font-weight="400" font-size="83" transform="matrix(1 0 0 1 1523.84 1344)">Store Buffer</text><text font-family="Malgun Gothic,Malgun Gothic_MSFontService,sans-serif" font-weight="400" font-size="64" transform="matrix(1 0 0 1 978.96 491)">Load</text><text font-family="Malgun Gothic,Malgun Gothic_MSFontService,sans-serif" font-weight="400" font-size="64" transform="matrix(1 0 0 1 1141.32 491)">완료된</text><text font-family="Malgun Gothic,Malgun Gothic_MSFontService,sans-serif" font-weight="400" font-size="64" transform="matrix(1 0 0 1 978.96 568)">데이터</text><text font-family="Malgun Gothic,Malgun Gothic_MSFontService,sans-serif" font-weight="400" font-size="64" transform="matrix(1 0 0 1 1193.8 568)">전달</text><path d="M1466.72 1337.93 1458.64 1337.93 1427.95 1337.28 1397.68 1335.98 1367.85 1334.07 1338.5 1331.55 1309.68 1328.44 1281.41 1324.76 1253.74 1320.51 1226.71 1315.72 1200.35 1310.41 1174.71 1304.57 1149.82 1298.24 1125.72 1291.42 1102.44 1284.13 1080.03 1276.39 1058.53 1268.21 1037.97 1259.6 1018.39 1250.58 999.821 1241.16 982.313 1231.36 965.9 1221.18 950.619 1210.65 936.508 1199.77 923.608 1188.55 911.959 1177.01 901.601 1165.15 892.579 1152.99 884.939 1140.53 878.728 1127.79 874.018 1114.85 872.209 1108.2 870.804 1101.55 869.794 1094.85 869.184 1088.07 869.012 1079.14 869.559 1070.35 877.564 1070.84 877.027 1079.47 877.034 1079.15 877.2 1087.78 877.185 1087.5 877.772 1094.01 877.744 1093.77 878.718 1100.24 878.676 1100.01 880.033 1106.43 879.979 1106.21 881.713 1112.58 881.612 1112.26 886.194 1124.85 886.03 1124.47 892.063 1136.84 891.877 1136.5 899.324 1148.64 899.127 1148.35 907.948 1160.24 907.747 1159.99 917.905 1171.62 917.707 1171.41 929.161 1182.76 928.97 1182.58 941.682 1193.64 941.5 1193.49 955.432 1204.23 955.259 1204.11 970.372 1214.52 970.209 1214.42 986.464 1224.49 986.31 1224.4 1003.67 1234.12 1003.52 1234.04 1021.95 1243.39 1021.81 1243.32 1041.26 1252.28 1041.13 1252.23 1061.57 1260.78 1061.44 1260.73 1082.83 1268.87 1082.71 1268.83 1105.01 1276.53 1104.89 1276.5 1128.06 1283.75 1127.95 1283.72 1151.95 1290.51 1151.85 1290.48 1176.64 1296.79 1176.54 1296.76 1202.08 1302.57 1201.99 1302.55 1228.25 1307.85 1228.16 1307.84 1255.09 1312.61 1255 1312.59 1282.58 1316.82 1282.49 1316.81 1310.67 1320.48 1310.58 1320.47 1339.32 1323.57 1339.23 1323.57 1368.49 1326.08 1368.41 1326.07 1398.15 1327.98 1398.06 1327.97 1428.25 1329.26 1428.17 1329.26 1458.76 1329.91 1458.68 1329.91 1466.72 1329.91ZM1462.14 1311 1489.64 1333.92 1462.14 1356.84Z" fill="#156082"/><text font-family="Malgun Gothic,Malgun Gothic_MSFontService,sans-serif" font-weight="400" font-size="64" transform="matrix(1 0 0 1 978.96 1413)">연산</text><text font-family="Malgun Gothic,Malgun Gothic_MSFontService,sans-serif" font-weight="400" font-size="64" transform="matrix(1 0 0 1 1129.64 1413)">완료된</text><text font-family="Malgun Gothic,Malgun Gothic_MSFontService,sans-serif" font-weight="400" font-size="64" transform="matrix(1 0 0 1 978.96 1490)">데이터</text><text font-family="Malgun Gothic,Malgun Gothic_MSFontService,sans-serif" font-weight="400" font-size="64" transform="matrix(1 0 0 1 1193.8 1490)">저장</text><path d="M1703.79 747.867 1710.28 750.05 1717.33 753.641 1724.06 757.635 1730.6 762.087 1736.93 766.981 1743.07 772.301 1748.99 778.03 1754.7 784.153 1760.2 790.69 1770.43 804.728 1779.69 820.139 1787.92 836.765 1795.04 854.49 1801.01 873.198 1805.75 892.775 1809.21 913.104 1811.32 934.072 1812.02 955.527 1811.83 966.465 1811.25 977.482 1809.39 996.241 1806.47 1014.46 1802.54 1032.04 1797.64 1048.91 1791.83 1065 1785.14 1080.25 1777.62 1094.57 1769.32 1107.91 1760.28 1120.19 1750.55 1131.33 1740.16 1141.26 1729.15 1149.91 1717.58 1157.2 1705.55 1163.01 1699.27 1165.38 1692.94 1167.34 1686.5 1168.89 1680.1 1170.01 1678.72 1162.1 1685 1161.01 1684.74 1161.06 1690.93 1159.57 1690.69 1159.64 1696.79 1157.75 1696.55 1157.83 1702.55 1155.57 1702.22 1155.71 1713.89 1150.07 1713.5 1150.29 1724.7 1143.24 1724.36 1143.48 1735.05 1135.08 1734.75 1135.33 1744.87 1125.66 1744.63 1125.92 1754.13 1115.04 1753.92 1115.3 1762.77 1103.28 1762.6 1103.54 1770.73 1090.46 1770.59 1090.72 1777.97 1076.64 1777.85 1076.9 1784.43 1061.9 1784.33 1062.15 1790.05 1046.3 1789.97 1046.55 1794.8 1029.92 1794.74 1030.16 1798.62 1012.83 1798.57 1013.07 1801.45 995.09 1801.42 995.329 1803.26 976.784 1803.25 976.971 1803.81 966.116 1803.81 966.253 1804 955.485 1804 955.688 1803.31 934.47 1803.33 934.741 1801.24 914.045 1801.28 914.315 1797.86 894.257 1797.92 894.528 1793.24 875.224 1793.32 875.498 1787.45 857.066 1787.55 857.344 1780.53 839.899 1780.66 840.182 1772.58 823.843 1772.74 824.131 1763.64 809.013 1763.84 809.307 1753.8 795.527 1753.98 795.75 1748.63 789.398 1748.76 789.547 1743.19 783.574 1743.34 783.722 1737.57 778.142 1737.73 778.289 1731.77 773.115 1731.94 773.26 1725.79 768.508 1725.98 768.649 1719.65 764.334 1719.86 764.468 1713.35 760.604 1713.58 760.729 1706.91 757.331 1707.45 757.559 1701.24 755.47ZM1700.35 774.939 1680.56 745.114 1713.46 731.02Z" fill="#156082"/><text font-family="Malgun Gothic,Malgun Gothic_MSFontService,sans-serif" font-weight="700" font-size="64" transform="matrix(1 0 0 1 1840.83 872)">Store</text><text font-family="Malgun Gothic,Malgun Gothic_MSFontService,sans-serif" font-weight="700" font-size="64" transform="matrix(1 0 0 1 1999.43 872)">-</text><text font-family="Malgun Gothic,Malgun Gothic_MSFontService,sans-serif" font-weight="700" font-size="64" transform="matrix(1 0 0 1 2025.79 872)">to</text><text font-family="Malgun Gothic,Malgun Gothic_MSFontService,sans-serif" font-weight="700" font-size="64" transform="matrix(1 0 0 1 2089.68 872)">-</text><text font-family="Malgun Gothic,Malgun Gothic_MSFontService,sans-serif" font-weight="700" font-size="64" transform="matrix(1 0 0 1 2116.03 872)">Load Forwarding</text><text font-family="Malgun Gothic,Malgun Gothic_MSFontService,sans-serif" font-weight="400" font-size="64" transform="matrix(1 0 0 1 1840.83 949)">(Load</text><text font-family="Malgun Gothic,Malgun Gothic_MSFontService,sans-serif" font-weight="400" font-size="64" transform="matrix(1 0 0 1 2022.67 949)">Buffer</text><text font-family="Malgun Gothic,Malgun Gothic_MSFontService,sans-serif" font-weight="400" font-size="64" transform="matrix(1 0 0 1 2194.54 949)">에서</text><text font-family="Malgun Gothic,Malgun Gothic_MSFontService,sans-serif" font-weight="400" font-size="64" transform="matrix(1 0 0 1 2345.22 949)">필요한</text><text font-family="Malgun Gothic,Malgun Gothic_MSFontService,sans-serif" font-weight="400" font-size="64" transform="matrix(1 0 0 1 1840.83 1026)">데이터가</text><text font-family="Malgun Gothic,Malgun Gothic_MSFontService,sans-serif" font-weight="400" font-size="64" transform="matrix(1 0 0 1 2119.84 1026)">Store Buffer</text><text font-family="Malgun Gothic,Malgun Gothic_MSFontService,sans-serif" font-weight="400" font-size="64" transform="matrix(1 0 0 1 2463.36 1026)">에</text><text font-family="Malgun Gothic,Malgun Gothic_MSFontService,sans-serif" font-weight="400" font-size="64" transform="matrix(1 0 0 1 1840.83 1103)">있으면</text><text font-family="Malgun Gothic,Malgun Gothic_MSFontService,sans-serif" font-weight="400" font-size="64" transform="matrix(1 0 0 1 2055.67 1103)">전달해줌</text><text font-family="Malgun Gothic,Malgun Gothic_MSFontService,sans-serif" font-weight="400" font-size="64" transform="matrix(1 0 0 1 2312.34 1103)">)</text><path d="M2042.88 599.103 2062.94 599.053 2105.46 599.859 2147.43 601.557 2188.8 604.127 2229.5 607.546 2269.5 611.793 2308.73 616.847 2347.14 622.686 2384.68 629.29 2421.3 636.636 2456.93 644.704 2491.53 653.473 2525.04 662.921 2557.41 673.028 2588.59 683.772 2618.52 695.133 2647.15 707.092 2674.43 719.626 2700.28 732.708 2712.69 739.466 2724.71 746.346 2736.35 753.355 2747.61 760.492 2758.47 767.753 2768.93 775.137 2778.99 782.642 2788.64 790.264 2797.87 798.003 2806.67 805.855 2815.04 813.819 2822.97 821.893 2830.46 830.075 2837.49 838.362 2844.06 846.753 2850.15 855.246 2855.78 863.838 2860.91 872.526 2865.56 881.31 2869.7 890.185 2873.34 899.149 2876.46 908.199 2879.05 917.33 2881.11 926.54 2882.63 935.823 2883.6 945.214 2883.96 960.142 2875.94 960.337 2875.58 945.567 2875.6 945.882 2874.66 936.766 2874.69 937 2873.21 927.949 2873.26 928.177 2871.25 919.191 2871.3 919.412 2868.77 910.496 2868.84 910.707 2865.79 901.863 2865.87 902.064 2862.31 893.295 2862.39 893.485 2858.33 884.794 2858.42 884.972 2853.87 876.36 2853.96 876.527 2848.92 867.998 2849.01 868.153 2843.49 859.71 2843.59 859.854 2837.59 851.499 2837.69 851.632 2831.22 843.368 2831.32 843.49 2824.39 835.321 2824.49 835.433 2817.1 827.359 2817.2 827.463 2809.37 819.488 2809.47 819.583 2801.19 811.71 2801.29 811.798 2792.58 804.029 2792.67 804.109 2783.53 796.448 2783.62 796.522 2774.07 788.97 2774.15 789.037 2764.18 781.598 2764.27 781.66 2753.89 774.336 2753.97 774.393 2743.19 767.187 2743.27 767.24 2732.09 760.154 2732.17 760.203 2720.61 753.24 2720.69 753.285 2708.74 746.448 2708.82 746.489 2696.5 739.781 2696.61 739.837 2670.88 726.817 2671.01 726.883 2643.87 714.409 2644 714.466 2615.49 702.56 2615.62 702.609 2585.8 691.293 2585.92 691.335 2554.86 680.63 2554.97 680.666 2522.7 670.594 2522.81 670.626 2489.4 661.207 2489.51 661.235 2455.01 652.492 2455.11 652.516 2419.57 644.47 2419.67 644.491 2383.15 637.163 2383.25 637.181 2345.8 630.594 2345.89 630.609 2307.57 624.784 2307.66 624.796 2268.52 619.754 2268.61 619.764 2228.7 615.527 2228.79 615.535 2188.17 612.123 2188.25 612.13 2146.98 609.565 2147.06 609.57 2105.18 607.875 2105.27 607.878 2062.83 607.073 2062.92 607.074 2042.9 607.124ZM2047.53 626.019 2019.98 603.171 2047.42 580.186Z" fill="#156082"/><rect x="2856.5" y="412.5" width="520" height="1193" stroke="#1C440D" stroke-width="6.875" stroke-miterlimit="8" fill="#4EA72E"/><text font-family="Malgun Gothic,Malgun Gothic_MSFontService,sans-serif" font-weight="400" font-size="83" transform="matrix(1 0 0 1 2992.38 891)">메모리</text><text font-family="Malgun Gothic,Malgun Gothic_MSFontService,sans-serif" font-weight="400" font-size="83" transform="matrix(1 0 0 1 2924.5 990)">(L1 Cache, </text><text font-family="Malgun Gothic,Malgun Gothic_MSFontService,sans-serif" font-weight="400" font-size="83" transform="matrix(1 0 0 1 2909.88 1089)">물리메모리</text><text font-family="Malgun Gothic,Malgun Gothic_MSFontService,sans-serif" font-weight="400" font-size="83" transform="matrix(1 0 0 1 3062.28 1188)">등</text><text font-family="Malgun Gothic,Malgun Gothic_MSFontService,sans-serif" font-weight="400" font-size="83" transform="matrix(1 0 0 1 3144.78 1188)">)</text><text font-family="Malgun Gothic,Malgun Gothic_MSFontService,sans-serif" font-weight="400" font-size="64" transform="matrix(1 0 0 1 2232.62 581)">데이터</text><text font-family="Malgun Gothic,Malgun Gothic_MSFontService,sans-serif" font-weight="400" font-size="64" transform="matrix(1 0 0 1 2447.47 581)">전달</text><text font-family="Malgun Gothic,Malgun Gothic_MSFontService,sans-serif" font-weight="400" font-size="64" transform="matrix(1 0 0 1 2226.78 1402)">데이터</text><text font-family="Malgun Gothic,Malgun Gothic_MSFontService,sans-serif" font-weight="400" font-size="64" transform="matrix(1 0 0 1 2441.63 1402)">쓰기</text><path d="M2835.55 1161.55 2820.57 1169.95 2801.85 1179.58 2782.36 1188.93 2762.1 1198.02 2741.08 1206.83 2719.34 1215.36 2696.9 1223.62 2673.78 1231.59 2649.99 1239.27 2625.56 1246.65 2600.52 1253.74 2574.89 1260.53 2548.67 1267 2521.91 1273.17 2494.62 1279.02 2466.83 1284.55 2438.54 1289.76 2409.8 1294.63 2380.61 1299.18 2351.01 1303.38 2321.01 1307.24 2290.63 1310.76 2259.89 1313.92 2197.48 1319.17 2133.92 1322.96 2101.74 1324.3 2069.36 1325.25 2036.79 1325.83 2004.06 1326.01 2004.01 1317.99 2036.72 1317.81 2036.67 1317.81 2069.2 1317.23 2069.15 1317.24 2101.48 1316.28 2101.43 1316.28 2133.55 1314.95 2133.47 1314.95 2196.95 1311.17 2196.85 1311.18 2259.18 1305.93 2259.11 1305.94 2289.78 1302.78 2289.73 1302.79 2320.06 1299.28 2320.01 1299.28 2349.96 1295.43 2349.91 1295.44 2379.46 1291.24 2379.41 1291.25 2408.54 1286.71 2408.48 1286.72 2437.18 1281.85 2437.12 1281.86 2465.35 1276.67 2465.29 1276.68 2493.03 1271.16 2492.97 1271.17 2520.2 1265.33 2520.14 1265.35 2546.84 1259.19 2546.78 1259.21 2572.93 1252.75 2572.86 1252.76 2598.44 1246 2598.37 1246.01 2623.35 1238.95 2623.28 1238.97 2647.63 1231.6 2647.56 1231.62 2671.27 1223.97 2671.2 1223.99 2694.25 1216.05 2694.17 1216.08 2716.54 1207.85 2716.45 1207.88 2738.11 1199.38 2738.02 1199.41 2758.95 1190.64 2758.86 1190.68 2779.03 1181.63 2778.94 1181.68 2798.33 1172.37 2798.23 1172.42 2816.83 1162.85 2816.71 1162.92 2831.63 1154.56ZM2818.09 1140.56 2853.39 1146.52 2841.16 1180.16Z" fill="#156082"/></g></svg>