<svg width="3980" height="901" xmlns="http://www.w3.org/2000/svg" xmlns:xlink="http://www.w3.org/1999/xlink" xml:space="preserve" overflow="hidden"><defs><clipPath id="clip0"><rect x="95" y="275" width="3980" height="901"/></clipPath></defs><g clip-path="url(#clip0)" transform="translate(-95 -275)"><rect x="94.9999" y="275" width="3980" height="882" fill="#FFFFFF"/><rect x="3064.5" y="454.5" width="712" height="523" stroke="#6C4F00" stroke-width="4.58333" stroke-linejoin="round" stroke-miterlimit="10" fill="#FFF2CC"/><text fill="#2E75B6" font-family="Calibri,Calibri_MSFontService,sans-serif" font-weight="400" font-size="73" transform="matrix(1 0 0 1 3096.51 564)">class</text><text font-family="Calibri,Calibri_MSFontService,sans-serif" font-weight="400" font-size="73" transform="matrix(1 0 0 1 3252.91 564)">Packet</text><text font-family="Calibri,Calibri_MSFontService,sans-serif" font-weight="400" font-size="73" transform="matrix(1 0 0 1 3096.51 652)">{</text><text fill="#2E75B6" font-family="Calibri,Calibri_MSFontService,sans-serif" font-weight="400" font-size="73" transform="matrix(1 0 0 1 3162.96 740)">char</text><text font-family="Calibri,Calibri_MSFontService,sans-serif" font-weight="400" font-size="73" transform="matrix(1 0 0 1 3309.63 740)">data[SIZE</text><text font-family="Calibri,Calibri_MSFontService,sans-serif" font-weight="400" font-size="73" transform="matrix(1 0 0 1 3585.91 740)">];</text><text fill="#2E75B6" font-family="Calibri,Calibri_MSFontService,sans-serif" font-weight="400" font-size="73" transform="matrix(1 0 0 1 3162.96 828)">int</text><text font-family="Calibri,Calibri_MSFontService,sans-serif" font-weight="400" font-size="73" transform="matrix(1 0 0 1 3258.53 828)">use_count</text><text font-family="Calibri,Calibri_MSFontService,sans-serif" font-weight="400" font-size="73" transform="matrix(1 0 0 1 3568.89 828)">;</text><text font-family="Calibri,Calibri_MSFontService,sans-serif" font-weight="400" font-size="73" transform="matrix(1 0 0 1 3096.51 916)">}</text><rect x="1144.5" y="418.5" width="955" height="164" stroke="#223F59" stroke-width="4.58333" stroke-linejoin="round" stroke-miterlimit="10" fill="#FFE699"/><text font-family="Calibri,Calibri_MSFontService,sans-serif" font-weight="400" font-size="73" transform="matrix(1 0 0 1 1180.28 525)">Thread</text><text font-family="Calibri,Calibri_MSFontService,sans-serif" font-weight="400" font-size="73" transform="matrix(1 0 0 1 1389 525)">-</text><text font-family="Calibri,Calibri_MSFontService,sans-serif" font-weight="400" font-size="73" transform="matrix(1 0 0 1 1411.34 525)">Safe</text><text font-family="Calibri,Calibri_MSFontService,sans-serif" font-weight="400" font-size="73" transform="matrix(1 0 0 1 1536.84 525)">-</text><text font-family="Calibri,Calibri_MSFontService,sans-serif" font-weight="400" font-size="73" transform="matrix(1 0 0 1 1559.18 525)">Queue&lt;Packet*&gt;</text><text font-family="Malgun Gothic,Malgun Gothic_MSFontService,sans-serif" font-weight="400" font-size="83" transform="matrix(1 0 0 1 3000.4 419)">보낼</text><text font-family="Malgun Gothic,Malgun Gothic_MSFontService,sans-serif" font-weight="400" font-size="83" transform="matrix(1 0 0 1 3184.31 419)">데이터가</text><text font-family="Malgun Gothic,Malgun Gothic_MSFontService,sans-serif" font-weight="400" font-size="83" transform="matrix(1 0 0 1 3533.22 419)">담긴</text><text font-family="Malgun Gothic,Malgun Gothic_MSFontService,sans-serif" font-weight="400" font-size="83" transform="matrix(1 0 0 1 3717.12 419)">패킷</text><text font-family="Malgun Gothic,Malgun Gothic_MSFontService,sans-serif" font-weight="400" font-size="83" transform="matrix(1 0 0 1 212.223 513)">소켓</text><text font-family="Calibri,Calibri_MSFontService,sans-serif" font-weight="400" font-size="83" transform="matrix(1 0 0 1 377.223 513)">1</text><text font-family="Malgun Gothic,Malgun Gothic_MSFontService,sans-serif" font-weight="400" font-size="83" transform="matrix(1 0 0 1 419.046 513)">의</text><text font-family="Malgun Gothic,Malgun Gothic_MSFontService,sans-serif" font-weight="400" font-size="83" transform="matrix(1 0 0 1 520.453 513)">보낼패킷</text><text font-family="Calibri,Calibri_MSFontService,sans-serif" font-weight="400" font-size="83" transform="matrix(1 0 0 1 869.359 513)">Queue</text><rect x="1144.5" y="626.5" width="955" height="164" stroke="#223F59" stroke-width="4.58333" stroke-linejoin="round" stroke-miterlimit="10" fill="#FFE699"/><text font-family="Calibri,Calibri_MSFontService,sans-serif" font-weight="400" font-size="73" transform="matrix(1 0 0 1 1180.28 733)">Thread</text><text font-family="Calibri,Calibri_MSFontService,sans-serif" font-weight="400" font-size="73" transform="matrix(1 0 0 1 1389 733)">-</text><text font-family="Calibri,Calibri_MSFontService,sans-serif" font-weight="400" font-size="73" transform="matrix(1 0 0 1 1411.34 733)">Safe</text><text font-family="Calibri,Calibri_MSFontService,sans-serif" font-weight="400" font-size="73" transform="matrix(1 0 0 1 1536.84 733)">-</text><text font-family="Calibri,Calibri_MSFontService,sans-serif" font-weight="400" font-size="73" transform="matrix(1 0 0 1 1559.18 733)">Queue&lt;Packet*&gt;</text><text font-family="Malgun Gothic,Malgun Gothic_MSFontService,sans-serif" font-weight="400" font-size="83" transform="matrix(1 0 0 1 212.223 721)">소켓</text><text font-family="Calibri,Calibri_MSFontService,sans-serif" font-weight="400" font-size="83" transform="matrix(1 0 0 1 377.223 721)">2</text><text font-family="Malgun Gothic,Malgun Gothic_MSFontService,sans-serif" font-weight="400" font-size="83" transform="matrix(1 0 0 1 419.046 721)">의</text><text font-family="Malgun Gothic,Malgun Gothic_MSFontService,sans-serif" font-weight="400" font-size="83" transform="matrix(1 0 0 1 520.453 721)">보낼패킷</text><text font-family="Calibri,Calibri_MSFontService,sans-serif" font-weight="400" font-size="83" transform="matrix(1 0 0 1 869.359 721)">Queue</text><rect x="1144.5" y="825.5" width="955" height="164" stroke="#223F59" stroke-width="4.58333" stroke-linejoin="round" stroke-miterlimit="10" fill="#FFE699"/><text font-family="Calibri,Calibri_MSFontService,sans-serif" font-weight="400" font-size="73" transform="matrix(1 0 0 1 1180.28 932)">Thread</text><text font-family="Calibri,Calibri_MSFontService,sans-serif" font-weight="400" font-size="73" transform="matrix(1 0 0 1 1389 932)">-</text><text font-family="Calibri,Calibri_MSFontService,sans-serif" font-weight="400" font-size="73" transform="matrix(1 0 0 1 1411.34 932)">Safe</text><text font-family="Calibri,Calibri_MSFontService,sans-serif" font-weight="400" font-size="73" transform="matrix(1 0 0 1 1536.84 932)">-</text><text font-family="Calibri,Calibri_MSFontService,sans-serif" font-weight="400" font-size="73" transform="matrix(1 0 0 1 1559.18 932)">Queue&lt;Packet*&gt;</text><text font-family="Malgun Gothic,Malgun Gothic_MSFontService,sans-serif" font-weight="400" font-size="83" transform="matrix(1 0 0 1 212.223 919)">소켓</text><text font-family="Calibri,Calibri_MSFontService,sans-serif" font-weight="400" font-size="83" transform="matrix(1 0 0 1 377.223 919)">3</text><text font-family="Malgun Gothic,Malgun Gothic_MSFontService,sans-serif" font-weight="400" font-size="83" transform="matrix(1 0 0 1 419.046 919)">의</text><text font-family="Malgun Gothic,Malgun Gothic_MSFontService,sans-serif" font-weight="400" font-size="83" transform="matrix(1 0 0 1 520.453 919)">보낼패킷</text><text font-family="Calibri,Calibri_MSFontService,sans-serif" font-weight="400" font-size="83" transform="matrix(1 0 0 1 869.359 919)">Queue</text><text font-family="Calibri,Calibri_MSFontService,sans-serif" font-weight="400" font-size="128" transform="matrix(6.12323e-17 1 -1 6.12323e-17 619.379 1010)">…</text><path d="M3063.22 718.976 2121.12 508.844 2122.62 502.134 3064.72 712.266ZM2123.35 519.907 2099.5 500.5 2129.33 493.066Z" fill="#5B9BD5"/><path d="M3063.94 718.844 2122.39 712.102 2122.44 705.227 3063.99 711.969ZM2126.9 722.447 2099.5 708.5 2127.1 694.947Z" fill="#5B9BD5"/><path d="M0.669263-3.37172 942.662 183.607 941.323 190.351-0.669263 3.37172ZM940.171 172.599 964.468 191.44 934.817 199.573Z" fill="#5B9BD5" transform="matrix(-1 0 0 1 3063.97 715.5)"/><text font-family="Malgun Gothic,Malgun Gothic_MSFontService,sans-serif" font-weight="400" font-size="83" transform="matrix(1 0 0 1 2405.08 528)">삽입</text></g></svg>