<svg width="3811" height="1027" xmlns="http://www.w3.org/2000/svg" xmlns:xlink="http://www.w3.org/1999/xlink" xml:space="preserve" overflow="hidden"><defs><clipPath id="clip0"><rect x="154" y="49" width="3811" height="1027"/></clipPath></defs><g clip-path="url(#clip0)" transform="translate(-154 -49)"><rect x="154" y="70.0001" width="3811" height="1003" fill="#FFFFFF"/><rect x="251.5" y="263.5" width="3617" height="226" stroke="#6C4F00" stroke-width="4.58333" stroke-linejoin="round" stroke-miterlimit="10" fill="#FFF2CC"/><rect x="251.5" y="263.5" width="953" height="226" stroke="#223F59" stroke-width="4.58333" stroke-linejoin="round" stroke-miterlimit="10" fill="#FFE699"/><text font-family="Calibri,Calibri_MSFontService,sans-serif" font-weight="400" font-size="83" transform="matrix(1 0 0 1 595.086 354)">80bytes</text><text font-family="Malgun Gothic,Malgun Gothic_MSFontService,sans-serif" font-weight="400" font-size="83" transform="matrix(1 0 0 1 306.748 454)">온전한</text><text font-family="Calibri,Calibri_MSFontService,sans-serif" font-weight="400" font-size="83" transform="matrix(1 0 0 1 573.154 454)">1</text><text font-family="Malgun Gothic,Malgun Gothic_MSFontService,sans-serif" font-weight="400" font-size="83" transform="matrix(1 0 0 1 614.977 454)">개</text><text font-family="Malgun Gothic,Malgun Gothic_MSFontService,sans-serif" font-weight="400" font-size="83" transform="matrix(1 0 0 1 716.384 454)">패킷</text><text font-family="Malgun Gothic,Malgun Gothic_MSFontService,sans-serif" font-weight="400" font-size="83" transform="matrix(1 0 0 1 900.29 454)">데이터</text><rect x="1204.5" y="263.5" width="953" height="226" stroke="#64310F" stroke-width="4.58333" stroke-linejoin="round" stroke-miterlimit="10" fill="#FFD966"/><text font-family="Calibri,Calibri_MSFontService,sans-serif" font-weight="400" font-size="83" transform="matrix(1 0 0 1 1548.08 354)">20bytes</text><text font-family="Calibri,Calibri_MSFontService,sans-serif" font-weight="400" font-size="83" transform="matrix(1 0 0 1 1250.28 454)">1</text><text font-family="Malgun Gothic,Malgun Gothic_MSFontService,sans-serif" font-weight="400" font-size="83" transform="matrix(1 0 0 1 1292.11 454)">개</text><text font-family="Malgun Gothic,Malgun Gothic_MSFontService,sans-serif" font-weight="400" font-size="83" transform="matrix(1 0 0 1 1393.51 454)">패킷</text><text font-family="Malgun Gothic,Malgun Gothic_MSFontService,sans-serif" font-weight="400" font-size="83" transform="matrix(1 0 0 1 1577.42 454)">데이터</text><text font-family="Malgun Gothic,Malgun Gothic_MSFontService,sans-serif" font-weight="400" font-size="83" transform="matrix(1 0 0 1 1843.82 454)">중</text><text font-family="Malgun Gothic,Malgun Gothic_MSFontService,sans-serif" font-weight="400" font-size="83" transform="matrix(1 0 0 1 1945.23 454)">일부</text><text font-family="Malgun Gothic,Malgun Gothic_MSFontService,sans-serif" font-weight="400" font-size="110" transform="matrix(1 0 0 1 1621.4 191)">사용자</text><text font-family="Malgun Gothic,Malgun Gothic_MSFontService,sans-serif" font-weight="400" font-size="110" transform="matrix(1 0 0 1 1976.04 191)">수신버퍼</text><text font-family="Calibri,Calibri_MSFontService,sans-serif" font-weight="400" font-size="110" transform="matrix(1 0 0 1 2416.04 191)">(</text><text font-family="Malgun Gothic,Malgun Gothic_MSFontService,sans-serif" font-weight="400" font-size="110" transform="matrix(1 0 0 1 2449.27 191)">배열</text><text font-family="Calibri,Calibri_MSFontService,sans-serif" font-weight="400" font-size="110" transform="matrix(1 0 0 1 2669.27 191)">)</text><text font-family="Calibri,Calibri_MSFontService,sans-serif" font-weight="400" font-size="83" transform="matrix(1 0 0 1 262.561 810)">80bytes</text><text font-family="Malgun Gothic,Malgun Gothic_MSFontService,sans-serif" font-weight="400" font-size="83" transform="matrix(1 0 0 1 526.927 810)">를</text><text font-family="Malgun Gothic,Malgun Gothic_MSFontService,sans-serif" font-weight="400" font-size="83" transform="matrix(1 0 0 1 628.334 810)">처리한</text><text font-family="Malgun Gothic,Malgun Gothic_MSFontService,sans-serif" font-weight="400" font-size="83" transform="matrix(1 0 0 1 894.74 810)">다음</text><text font-family="Malgun Gothic,Malgun Gothic_MSFontService,sans-serif" font-weight="400" font-size="83" transform="matrix(1 0 0 1 1078.65 810)">나머지</text><text font-family="Calibri,Calibri_MSFontService,sans-serif" font-weight="400" font-size="83" transform="matrix(1 0 0 1 1345.05 810)">20bytes</text><text font-family="Malgun Gothic,Malgun Gothic_MSFontService,sans-serif" font-weight="400" font-size="83" transform="matrix(1 0 0 1 1609.42 810)">를</text><text font-family="Malgun Gothic,Malgun Gothic_MSFontService,sans-serif" font-weight="400" font-size="83" transform="matrix(1 0 0 1 262.561 909)">앞으로</text><text font-family="Malgun Gothic,Malgun Gothic_MSFontService,sans-serif" font-weight="400" font-size="83" transform="matrix(1 0 0 1 528.967 909)">옮겨놔야함</text><text font-family="Calibri,Calibri_MSFontService,sans-serif" font-weight="400" font-size="83" transform="matrix(1 0 0 1 941.467 909)">. </text><text font-family="Malgun Gothic,Malgun Gothic_MSFontService,sans-serif" font-weight="400" font-size="83" transform="matrix(1 0 0 1 980.998 909)">그래야</text><text font-family="Malgun Gothic,Malgun Gothic_MSFontService,sans-serif" font-weight="400" font-size="83" transform="matrix(1 0 0 1 1247.4 909)">수신버퍼</text><text font-family="Malgun Gothic,Malgun Gothic_MSFontService,sans-serif" font-weight="400" font-size="83" transform="matrix(1 0 0 1 262.561 1008)">남은공간이</text><text font-family="Malgun Gothic,Malgun Gothic_MSFontService,sans-serif" font-weight="400" font-size="83" transform="matrix(1 0 0 1 693.967 1008)">모자라지</text><text font-family="Malgun Gothic,Malgun Gothic_MSFontService,sans-serif" font-weight="400" font-size="83" transform="matrix(1 0 0 1 1042.87 1008)">않음</text><path d="M1639.93 490.16 1639.71 494.999 1639 500.126 1637.83 505.209 1636.19 510.241 1634.1 515.217 1631.57 520.132 1628.62 524.984 1625.24 529.773 1621.45 534.498 1617.25 539.16 1612.66 543.76 1607.68 548.298 1602.32 552.776 1596.57 557.194 1590.46 561.551 1583.98 565.848 1569.98 574.238 1554.53 582.412 1537.71 590.335 1519.57 597.999 1500.15 605.396 1479.49 612.517 1457.63 619.352 1434.61 625.889 1410.48 632.119 1385.28 638.031 1359.05 643.612 1331.83 648.853 1303.67 653.742 1274.62 658.266 1244.7 662.415 1213.97 666.177 1182.47 669.541 1150.24 672.494 1117.33 675.024 1083.78 677.121 1049.63 678.773 1014.92 679.967 979.707 680.693 944.024 680.937 908.964 680.702 874.349 680.001 840.218 678.847 806.615 677.25 773.58 675.222 741.156 672.773 709.385 669.914 678.307 666.657 647.966 663.013 618.402 658.992 589.657 654.605 561.773 649.864 534.791 644.779 508.753 639.361 483.701 633.621 459.675 627.57 436.717 621.217 414.867 614.574 394.168 607.65 374.658 600.456 356.38 593 339.373 585.293 323.677 577.341 309.331 569.153 296.375 560.733 284.85 552.085 279.582 547.631 274.739 543.159 270.274 538.628C270.05 538.401 269.859 538.143 269.706 537.863L267.179 533.232 273.215 529.94 275.741 534.57 275.173 533.805 279.405 538.11 284.026 542.385 288.979 546.588 300.124 554.969 312.741 563.183 326.785 571.209 342.212 579.031 358.977 586.635 377.038 594.006 396.349 601.13 416.867 607.996 438.55 614.591 461.354 620.903 485.236 626.92 510.154 632.63 536.064 638.023 562.925 643.086 590.694 647.809 619.328 652.18 648.786 656.187 679.024 659.82 710.001 663.067 741.674 665.917 774.002 668.359 806.941 670.383 840.451 671.976 874.488 673.128 909.011 673.827 943.977 674.063 979.565 673.819 1014.69 673.097 1049.3 671.906 1083.35 670.26 1116.8 668.17 1149.61 665.647 1181.74 662.704 1213.13 659.353 1243.76 655.605 1273.56 651.473 1302.5 646.968 1330.53 642.102 1357.62 636.888 1383.71 631.337 1408.76 625.462 1432.73 619.276 1455.58 612.79 1477.25 606.017 1497.7 598.971 1516.89 591.666 1534.78 584.115 1551.31 576.334 1566.45 568.34 1580.18 560.118 1586.47 555.951 1592.38 551.743 1597.91 547.496 1603.05 543.214 1607.8 538.9 1612.14 534.557 1616.09 530.19 1619.62 525.802 1622.75 521.396 1625.47 516.976 1627.77 512.543 1629.66 508.099 1631.13 503.642 1632.19 499.17 1632.84 494.678 1633.07 489.839ZM251.762 545.95 251.719 494.706 292.739 525.418Z" fill="#5B9BD5"/></g></svg>