<svg width="2947" height="1505" xmlns="http://www.w3.org/2000/svg" xmlns:xlink="http://www.w3.org/1999/xlink" xml:space="preserve" overflow="hidden"><defs><clipPath id="clip0"><rect x="477" y="177" width="2947" height="1505"/></clipPath></defs><g clip-path="url(#clip0)" transform="translate(-477 -177)"><rect x="477" y="177" width="2947" height="1505" fill="#FFFFFF"/><text font-family="Calibri,Calibri_MSFontService,sans-serif" font-weight="400" font-size="83" transform="matrix(1 0 0 1 2223.55 347)">TLB(</text><text font-family="Calibri,Calibri_MSFontService,sans-serif" font-weight="400" font-size="83" transform="matrix(1 0 0 1 2368.49 347)">Translation Lookaside </text><text font-family="Calibri,Calibri_MSFontService,sans-serif" font-weight="400" font-size="83" transform="matrix(1 0 0 1 3107.74 347)">Buffer)</text><text font-family="Calibri,Calibri_MSFontService,sans-serif" font-weight="400" font-size="64" transform="matrix(1 0 0 1 2414.49 430)">tag =</text><text font-family="Malgun Gothic,Malgun Gothic_MSFontService,sans-serif" font-weight="400" font-size="64" transform="matrix(1 0 0 1 2543.19 430)">가상메모리</text><text font-family="Calibri,Calibri_MSFontService,sans-serif" font-weight="400" font-size="64" transform="matrix(1 0 0 1 2878.34 430)">page </text><text font-family="Malgun Gothic,Malgun Gothic_MSFontService,sans-serif" font-weight="400" font-size="64" transform="matrix(1 0 0 1 3019.33 430)">번호</text><text font-family="Calibri,Calibri_MSFontService,sans-serif" font-weight="400" font-size="64" transform="matrix(1 0 0 1 2376.52 507)">data = </text><text font-family="Malgun Gothic,Malgun Gothic_MSFontService,sans-serif" font-weight="400" font-size="64" transform="matrix(1 0 0 1 2553.32 507)">물리메모리</text><text font-family="Calibri,Calibri_MSFontService,sans-serif" font-weight="400" font-size="64" transform="matrix(1 0 0 1 2888.47 507)">frame </text><text font-family="Malgun Gothic,Malgun Gothic_MSFontService,sans-serif" font-weight="400" font-size="64" transform="matrix(1 0 0 1 3057.32 507)">번호</text><text font-family="Calibri,Calibri_MSFontService,sans-serif" font-weight="400" font-size="64" transform="matrix(1 0 0 1 1613.68 735)">tag</text><text font-family="Malgun Gothic,Malgun Gothic_MSFontService,sans-serif" font-weight="400" font-size="64" transform="matrix(1 0 0 1 1695.97 735)">로</text><text font-family="Calibri,Calibri_MSFontService,sans-serif" font-weight="400" font-size="64" transform="matrix(1 0 0 1 1774.46 735)">data</text><text font-family="Malgun Gothic,Malgun Gothic_MSFontService,sans-serif" font-weight="400" font-size="64" transform="matrix(1 0 0 1 1890.53 735)">를</text><text font-family="Malgun Gothic,Malgun Gothic_MSFontService,sans-serif" font-weight="400" font-size="64" transform="matrix(1 0 0 1 1969.02 735)">찾음</text><text font-family="Calibri,Calibri_MSFontService,sans-serif" font-weight="400" font-size="64" transform="matrix(1 0 0 1 1613.68 812)">(</text><text font-family="Malgun Gothic,Malgun Gothic_MSFontService,sans-serif" font-weight="400" font-size="64" transform="matrix(1 0 0 1 1633.16 812)">병렬로</text><text font-family="Malgun Gothic,Malgun Gothic_MSFontService,sans-serif" font-weight="400" font-size="64" transform="matrix(1 0 0 1 1839.98 812)">접근</text><text font-family="Calibri,Calibri_MSFontService,sans-serif" font-weight="400" font-size="64" transform="matrix(1 0 0 1 1968.31 812)">)</text><text font-family="Malgun Gothic,Malgun Gothic_MSFontService,sans-serif" font-weight="400" font-size="64" transform="matrix(1 0 0 1 604.338 1278)">최종적으로</text><text font-family="Malgun Gothic,Malgun Gothic_MSFontService,sans-serif" font-weight="400" font-size="64" transform="matrix(1 0 0 1 939.494 1278)">찾은</text><text font-family="Malgun Gothic,Malgun Gothic_MSFontService,sans-serif" font-weight="400" font-size="64" transform="matrix(1 0 0 1 604.338 1355)">물리메모리</text><text font-family="Malgun Gothic,Malgun Gothic_MSFontService,sans-serif" font-weight="400" font-size="64" transform="matrix(1 0 0 1 939.494 1355)">주소</text><rect x="2414.5" y="555.5" width="346" height="100" stroke="#223F59" stroke-width="4.58333" stroke-miterlimit="8" fill="#FFF2CC"/><text font-family="Calibri,Calibri_MSFontService,sans-serif" font-weight="400" font-size="64" transform="matrix(1 0 0 1 2545.69 627)">ta</text><text font-family="Calibri,Calibri_MSFontService,sans-serif" font-weight="400" font-size="64" transform="matrix(1 0 0 1 2597.62 627)">g</text><rect x="2760.5" y="555.5" width="345" height="100" stroke="#223F59" stroke-width="4.58333" stroke-miterlimit="8" fill="#FFF2CC"/><text font-family="Calibri,Calibri_MSFontService,sans-serif" font-weight="400" font-size="64" transform="matrix(1 0 0 1 2874.26 627)">data</text><rect x="2414.5" y="670.5" width="346" height="99.9997" stroke="#223F59" stroke-width="4.58333" stroke-miterlimit="8" fill="#FFF2CC"/><text font-family="Calibri,Calibri_MSFontService,sans-serif" font-weight="400" font-size="64" transform="matrix(1 0 0 1 2545.69 741)">ta</text><text font-family="Calibri,Calibri_MSFontService,sans-serif" font-weight="400" font-size="64" transform="matrix(1 0 0 1 2597.62 741)">g</text><rect x="2760.5" y="670.5" width="345" height="99.9997" stroke="#223F59" stroke-width="4.58333" stroke-miterlimit="8" fill="#FFF2CC"/><text font-family="Calibri,Calibri_MSFontService,sans-serif" font-weight="400" font-size="64" transform="matrix(1 0 0 1 2874.26 741)">data</text><rect x="2414.5" y="783.5" width="346" height="100" stroke="#223F59" stroke-width="4.58333" stroke-miterlimit="8" fill="#FFF2CC"/><text font-family="Calibri,Calibri_MSFontService,sans-serif" font-weight="400" font-size="64" transform="matrix(1 0 0 1 2545.69 854)">ta</text><text font-family="Calibri,Calibri_MSFontService,sans-serif" font-weight="400" font-size="64" transform="matrix(1 0 0 1 2597.62 854)">g</text><rect x="2760.5" y="783.5" width="345" height="100" stroke="#223F59" stroke-width="4.58333" stroke-miterlimit="8" fill="#FFF2CC"/><text font-family="Calibri,Calibri_MSFontService,sans-serif" font-weight="400" font-size="64" transform="matrix(1 0 0 1 2874.26 854)">data</text><rect x="2414.5" y="897.5" width="346" height="100" stroke="#223F59" stroke-width="4.58333" stroke-miterlimit="8" fill="#FFF2CC"/><text font-family="Calibri,Calibri_MSFontService,sans-serif" font-weight="400" font-size="64" transform="matrix(1 0 0 1 2545.69 969)">ta</text><text font-family="Calibri,Calibri_MSFontService,sans-serif" font-weight="400" font-size="64" transform="matrix(1 0 0 1 2597.62 969)">g</text><rect x="2760.5" y="897.5" width="345" height="100" stroke="#223F59" stroke-width="4.58333" stroke-miterlimit="8" fill="#FFF2CC"/><text font-family="Calibri,Calibri_MSFontService,sans-serif" font-weight="400" font-size="64" transform="matrix(1 0 0 1 2874.26 969)">data</text><rect x="2414.5" y="1014.5" width="346" height="100" stroke="#223F59" stroke-width="4.58333" stroke-miterlimit="8" fill="#FFF2CC"/><text font-family="Calibri,Calibri_MSFontService,sans-serif" font-weight="400" font-size="64" transform="matrix(1 0 0 1 2545.69 1085)">ta</text><text font-family="Calibri,Calibri_MSFontService,sans-serif" font-weight="400" font-size="64" transform="matrix(1 0 0 1 2597.62 1085)">g</text><rect x="2760.5" y="1014.5" width="345" height="100" stroke="#223F59" stroke-width="4.58333" stroke-miterlimit="8" fill="#FFF2CC"/><text font-family="Calibri,Calibri_MSFontService,sans-serif" font-weight="400" font-size="64" transform="matrix(1 0 0 1 2874.26 1085)">data</text><rect x="2414.5" y="1128.5" width="346" height="100" stroke="#223F59" stroke-width="4.58333" stroke-miterlimit="8" fill="#FFF2CC"/><text font-family="Calibri,Calibri_MSFontService,sans-serif" font-weight="400" font-size="64" transform="matrix(1 0 0 1 2545.69 1200)">ta</text><text font-family="Calibri,Calibri_MSFontService,sans-serif" font-weight="400" font-size="64" transform="matrix(1 0 0 1 2597.62 1200)">g</text><rect x="2760.5" y="1128.5" width="345" height="100" stroke="#223F59" stroke-width="4.58333" stroke-miterlimit="8" fill="#FFF2CC"/><text font-family="Calibri,Calibri_MSFontService,sans-serif" font-weight="400" font-size="64" transform="matrix(1 0 0 1 2874.26 1200)">data</text><rect x="610.5" y="819.5" width="544" height="93.0002" stroke="#223F59" stroke-width="4.58333" stroke-miterlimit="8" fill="#FFC000"/><text font-family="Calibri,Calibri_MSFontService,sans-serif" font-weight="400" font-size="64" transform="matrix(1 0 0 1 753.707 887)">tag(36bit)</text><rect x="1154.5" y="819.5" width="396" height="93.0002" stroke="#223F59" stroke-width="4.58333" stroke-miterlimit="8" fill="#FFC000"/><text font-family="Calibri,Calibri_MSFontService,sans-serif" font-weight="400" font-size="64" transform="matrix(1 0 0 1 1189.76 887)">offset(12bit)</text><text font-family="Calibri,Calibri_MSFontService,sans-serif" font-weight="400" font-size="64" transform="matrix(1 0 0 1 627.135 698)">CPU</text><text font-family="Malgun Gothic,Malgun Gothic_MSFontService,sans-serif" font-weight="400" font-size="64" transform="matrix(1 0 0 1 735.989 698)">가</text><text font-family="Malgun Gothic,Malgun Gothic_MSFontService,sans-serif" font-weight="400" font-size="64" transform="matrix(1 0 0 1 814.479 698)">연산에</text><text font-family="Malgun Gothic,Malgun Gothic_MSFontService,sans-serif" font-weight="400" font-size="64" transform="matrix(1 0 0 1 1021.3 698)">사용할</text><text font-family="Malgun Gothic,Malgun Gothic_MSFontService,sans-serif" font-weight="400" font-size="64" transform="matrix(1 0 0 1 688.735 775)">가상메모리</text><text font-family="Malgun Gothic,Malgun Gothic_MSFontService,sans-serif" font-weight="400" font-size="64" transform="matrix(1 0 0 1 1023.89 775)">주소</text><path d="M1633.5 859.208 2165.51 859.208 2165.51 1179.12 2163.22 1176.83 2391.58 1176.83 2391.58 1181.41 2160.93 1181.41 2160.93 861.5 2163.22 863.792 1633.5 863.792ZM2387 1165.37 2414.5 1179.12 2387 1192.87Z" fill="#4472C4"/><path d="M1633.5 859.208 2165.51 859.208 2165.51 1064.61 2163.22 1062.32 2391.58 1062.32 2391.58 1066.9 2160.93 1066.9 2160.93 861.5 2163.22 863.792 1633.5 863.792ZM2387 1050.86 2414.5 1064.61 2387 1078.36Z" fill="#4472C4"/><path d="M1633.5 859.208 2165.51 859.208 2165.51 948.366 2163.22 946.075 2391.58 946.075 2391.58 950.658 2160.93 950.658 2160.93 861.5 2163.22 863.792 1633.5 863.792ZM2387 934.616 2414.5 948.366 2387 962.116Z" fill="#4472C4"/><path d="M0-2.29167 532.16-2.29167 532.16 27.6483 529.868 25.3567 758.081 25.3567 758.081 29.94 527.576 29.94 527.576 0 529.868 2.29167 0 2.29167ZM753.497 13.8983 780.997 27.6483 753.497 41.3983Z" fill="#4472C4" transform="matrix(1 0 0 -1 1633.5 861.148)"/><path d="M0-2.29167 532.011-2.29167 532.011 140.635 529.719 138.344 758.081 138.344 758.081 142.927 527.428 142.927 527.428 0 529.719 2.29167 0 2.29167ZM753.497 126.885 780.997 140.635 753.497 154.385Z" fill="#4472C4" transform="matrix(1 0 0 -1 1633.5 861.135)"/><path d="M0-2.29167 531.487-2.29167 531.487 255.15 529.196 252.859 758.081 252.859 758.081 257.442 526.904 257.442 526.904 0 529.196 2.29167 0 2.29167ZM753.497 241.4 780.997 255.15 753.497 268.9Z" fill="#4472C4" transform="matrix(1 0 0 -1 1633.5 860.65)"/><rect x="610.5" y="1411.5" width="544" height="93.0001" stroke="#223F59" stroke-width="4.58333" stroke-miterlimit="8" fill="#FFC000"/><text font-family="Calibri,Calibri_MSFontService,sans-serif" font-weight="400" font-size="64" transform="matrix(1 0 0 1 736.364 1479)">data(36bit)</text><rect x="1154.5" y="1411.5" width="395" height="93.0001" stroke="#223F59" stroke-width="4.58333" stroke-miterlimit="8" fill="#FFC000"/><text font-family="Calibri,Calibri_MSFontService,sans-serif" font-weight="400" font-size="64" transform="matrix(1 0 0 1 1189.31 1479)">offset(12bit)</text><path d="M2935.31 1228.5 2935.31 1588.78 880.208 1588.78 880.208 1526.9 884.792 1526.9 884.792 1586.48 882.5 1584.19 2933.02 1584.19 2930.73 1586.48 2930.73 1228.5ZM868.75 1531.49 882.5 1503.99 896.25 1531.49Z"/><path d="M2.29167-0.00208676 2.7248 475.664-1.85853 475.668-2.29167 0.00208676ZM14.179 471.07 0.454003 498.583-13.321 471.095Z" transform="matrix(-1 0 0 1 1352.95 912.5)"/></g></svg>